# xmcd
#
# Track frame offsets:
#	150
#	14971
#	27862
#	42153
#	56372
#	72299
#	86548
#	99617
#	114428
#	127412
#	140708
#	155915
#	171157
#	185953
#	202250
#	216026
#	227622
#	239964
#	253198
#	267997
#	281394
#	295212
#	307282
#	322239
#
# Disc length: 4498 seconds
# Revision: 3
# Processed by: cddbd v1.5.2PL0 Copyright (c) Steve Scherf et al.
# Submitted via: dBpowerAMP V12.0
#
DISCID=90119018
DTITLE=The Carter Family - Sunshine in The Shadows CD 1
DYEAR=2003
DGENRE=Country
TTITLE0=Little Darling, Pal of Mine
TTITLE1=Keep on The Sunny Side
TTITLE2=Wildwood Flower
TTITLE3=My Clinch Mountain Home
TTITLE4=Hello Central! Give me Heaven
TTITLE5=Faded Coat of Blue
TTITLE6=Sow 'em on The Mountain
TTITLE7=Jimmie Rodgers Visits The Carter Family
TTITLE8=No Depression in Heaven
TTITLE9=The Foggy Mountain Top
TTITLE10=Diamonds in The Rough
TTITLE11=The Wandering Boy
TTITLE12=Engine One-Forty-Three
TTITLE13=Motherless Children
TTITLE14=Wayworn Traveller
TTITLE15=Jimmie Brown The Newsboy
TTITLE16=Worried Man Blues
TTITLE17=John Hardy Was a Desperate Little Man
TTITLE18=Bring Back my Blue-Eyed Boy to me
TTITLE19=Carter's Blues
TTITLE20=The Lover's Farewell
TTITLE21=Lonesome Valley
TTITLE22=Picture on The Wall
TTITLE23=Weary Prodigal Son
EXTD=
EXTT0=
EXTT1=
EXTT2=
EXTT3=
EXTT4=
EXTT5=
EXTT6=
EXTT7=
EXTT8=
EXTT9=
EXTT10=
EXTT11=
EXTT12=
EXTT13=
EXTT14=
EXTT15=
EXTT16=
EXTT17=
EXTT18=
EXTT19=
EXTT20=
EXTT21=
EXTT22=
EXTT23=
PLAYORDER=
